<?xml version="1.0" encoding="utf-8"?>
<svg width="103" height="25" viewBox="-460.259 -63.981 1159.706 240.536" fill="none" xmlns="http://www.w3.org/2000/svg">
  <defs>
    <pattern x="0" y="0" width="25" height="25" patternUnits="userSpaceOnUse" viewBox="0 0 100 100" id="pattern-0">
      <rect x="0" y="0" width="50" height="100" style="fill: black;"/>
    </pattern>
    <pattern id="pattern-0-20" href="#pattern-0" patternTransform="matrix(0.049885, 0, 0, 0.048965, 17.348959, 20.060865)"/>
    <pattern id="pattern-0-51" href="#pattern-0" patternTransform="matrix(0.049885, 0, 0, 0.048965, 15.690534, 5.10739)"/>
    <pattern id="pattern-0-0" href="#pattern-0" patternTransform="matrix(0.451244, 0, 0, 0.440593, -356.399682, 125.612639)"/>
    <pattern id="pattern-0-1" href="#pattern-0" patternTransform="matrix(0.451244, 0, 0, 0.440593, -263.701135, 108.330384)"/>
    <pattern id="pattern-0-2" href="#pattern-0" patternTransform="matrix(0.451244, 0, 0, 0.440593, -262.355493, 119.503606)"/>
    <pattern id="pattern-0-3" href="#pattern-0" patternTransform="matrix(0.451244, 0, 0, 0.440593, -387.456323, 129.024006)"/>
    <pattern id="pattern-0-4" href="#pattern-0" patternTransform="matrix(0.451244, 0, 0, 0.440593, -256.534021, 95.922328)"/>
    <pattern id="pattern-0-5" href="#pattern-0" patternTransform="matrix(0.451244, 0, 0, 0.440593, -352.937951, 144.783214)"/>
    <pattern id="pattern-0-6" href="#pattern-0" patternTransform="matrix(0.451244, 0, 0, 0.440593, -281.352197, 125.567542)"/>
    <pattern id="pattern-0-7" href="#pattern-0" patternTransform="matrix(0.451244, 0, 0, 0.440593, -292.703698, 113.17426)"/>
    <pattern id="pattern-0-8" href="#pattern-0" patternTransform="matrix(0.451244, 0, 0, 0.440593, -312.247094, 143.184913)"/>
    <pattern id="pattern-0-9" href="#pattern-0" patternTransform="matrix(0.451244, 0, 0, 0.440593, -402.521386, 98.515064)"/>
    <pattern id="pattern-0-10" href="#pattern-0" patternTransform="matrix(0.451244, 0, 0, 0.440593, -415.847009, 101.409362)"/>
    <pattern id="pattern-0-11" href="#pattern-0" patternTransform="matrix(0.451244, 0, 0, 0.440593, -297.788964, 122.339756)"/>
    <pattern id="pattern-0-12" href="#pattern-0" patternTransform="matrix(0.451244, 0, 0, 0.440593, -394.27102, 115.353313)"/>
    <pattern id="pattern-0-13" href="#pattern-0" patternTransform="matrix(0.451244, 0, 0, 0.440593, -317.99801, 130.686071)"/>
    <pattern id="pattern-0-14" href="#pattern-0" patternTransform="matrix(0.451244, 0, 0, 0.440593, -366.966272, 144.196644)"/>
    <pattern id="pattern-0-15" href="#pattern-0" patternTransform="matrix(0.451244, 0, 0, 0.440593, -369.406823, 126.104371)"/>
    <pattern id="pattern-0-16" href="#pattern-0" patternTransform="matrix(0.451244, 0, 0, 0.440593, -347.735864, 119.39632)"/>
    <pattern id="pattern-0-17" href="#pattern-0" patternTransform="matrix(0.451244, 0, 0, 0.440593, -289.265893, 139.45122)"/>
    <pattern id="pattern-0-18" href="#pattern-0" patternTransform="matrix(0.451244, 0, 0, 0.440593, -259.018762, 99.610553)"/>
    <pattern id="pattern-0-19" href="#pattern-0" patternTransform="matrix(0.451244, 0, 0, 0.440593, -350.168725, 121.313441)"/>
    <pattern id="pattern-1" href="#pattern-0" patternTransform="matrix(0.451244, 0, 0, 0.440593, -294.51687, 116.892753)"/>
    <pattern id="pattern-0-21" href="#pattern-0" patternTransform="matrix(0.451244, 0, 0, 0.440593, -332.167627, 55.024577)"/>
    <pattern id="pattern-0-22" href="#pattern-0" patternTransform="matrix(0.451244, 0, 0, 0.440593, -365.38125, -26.888287)"/>
    <pattern id="pattern-0-23" href="#pattern-0" patternTransform="matrix(0.451244, 0, 0, 0.440593, -348.789147, -44.408475)"/>
    <pattern id="pattern-0-24" href="#pattern-0" patternTransform="matrix(0.451244, 0, 0, 0.440593, -386.641442, -29.553448)"/>
    <pattern id="pattern-0-25" href="#pattern-0" patternTransform="matrix(0.451244, 0, 0, 0.440593, -341.974939, -16.927594)"/>
    <pattern id="pattern-0-26" href="#pattern-0" patternTransform="matrix(0.451244, 0, 0, 0.440593, -381.237329, -14.695615)"/>
    <pattern id="pattern-0-27" href="#pattern-0" patternTransform="matrix(0.451244, 0, 0, 0.440593, -373.738244, -35.35098)"/>
    <pattern id="pattern-0-28" href="#pattern-0" patternTransform="matrix(0.451244, 0, 0, 0.440593, -392.749231, -9.571103)"/>
    <pattern id="pattern-0-29" href="#pattern-0" patternTransform="matrix(0.451244, 0, 0, 0.440593, -365.641015, -11.884122)"/>
    <pattern id="pattern-0-30" href="#pattern-0" patternTransform="matrix(0.451244, 0, 0, 0.440593, -425.731347, 17.46886)"/>
    <pattern id="pattern-0-31" href="#pattern-0" patternTransform="matrix(0.451244, 0, 0, 0.440593, -409.099389, -2.835156)"/>
    <pattern id="pattern-0-32" href="#pattern-0" patternTransform="matrix(0.451244, 0, 0, 0.440593, -404.305444, 6.150897)"/>
    <pattern id="pattern-0-33" href="#pattern-0" patternTransform="matrix(0.451244, 0, 0, 0.440593, -385.218957, -26.272565)"/>
    <pattern id="pattern-0-34" href="#pattern-0" patternTransform="matrix(0.451244, 0, 0, 0.440593, -368.247155, -30.854535)"/>
    <pattern id="pattern-0-35" href="#pattern-0" patternTransform="matrix(0.451244, 0, 0, 0.440593, -264.353967, -7.111172)"/>
    <pattern id="pattern-0-36" href="#pattern-0" patternTransform="matrix(0.451244, 0, 0, 0.440593, -278.573632, -4.820767)"/>
    <pattern id="pattern-0-37" href="#pattern-0" patternTransform="matrix(0.451244, 0, 0, 0.440593, -310.54049, -31.146191)"/>
    <pattern id="pattern-0-38" href="#pattern-0" patternTransform="matrix(0.451244, 0, 0, 0.440593, -250.517846, 5.990283)"/>
    <pattern id="pattern-0-39" href="#pattern-0" patternTransform="matrix(0.451244, 0, 0, 0.440593, -311.796472, -23.087445)"/>
    <pattern id="pattern-0-40" href="#pattern-0" patternTransform="matrix(0.451244, 0, 0, 0.440593, -282.633203, -29.316632)"/>
    <pattern id="pattern-0-41" href="#pattern-0" patternTransform="matrix(0.451244, 0, 0, 0.440593, -320.355859, -43.808438)"/>
    <pattern id="pattern-0-42" href="#pattern-0" patternTransform="matrix(0.451244, 0, 0, 0.440593, -275.136743, -15.030514)"/>
    <pattern id="pattern-0-43" href="#pattern-0" patternTransform="matrix(0.451244, 0, 0, 0.440593, -240.924585, 18.118732)"/>
    <pattern id="pattern-0-44" href="#pattern-0" patternTransform="matrix(0.451244, 0, 0, 0.440593, -299.960046, -41.116589)"/>
    <pattern id="pattern-0-45" href="#pattern-0" patternTransform="matrix(0.451244, 0, 0, 0.440593, -301.660791, -9.670651)"/>
    <pattern id="pattern-0-46" href="#pattern-0" patternTransform="matrix(0.451244, 0, 0, 0.440593, -264.878625, 7.500629)"/>
    <pattern id="pattern-0-47" href="#pattern-0" patternTransform="matrix(0.451244, 0, 0, 0.440593, -322.528833, -10.979092)"/>
    <pattern id="pattern-0-48" href="#pattern-0" patternTransform="matrix(0.451244, 0, 0, 0.440593, -313.551049, -35.553433)"/>
    <pattern id="pattern-0-49" href="#pattern-0" patternTransform="matrix(0.451244, 0, 0, 0.440593, -272.328881, -13.208096)"/>
    <pattern id="pattern-0-50" href="#pattern-0" patternTransform="matrix(0.451244, 0, 0, 0.440593, -314.786889, -37.13847)"/>
    <pattern id="pattern-2" href="#pattern-0" patternTransform="matrix(0.451244, 0, 0, 0.440593, -309.518396, -17.660855)"/>
    <pattern id="pattern-0-52" href="#pattern-0" patternTransform="matrix(0.451244, 0, 0, 0.440593, -313.976953, -18.285901)"/>
    <pattern id="pattern-0-53" href="#pattern-0" patternTransform="matrix(0.451244, 0, 0, 0.440593, -318.247644, -41.427869)"/>
    <pattern id="pattern-0-54" href="#pattern-0" patternTransform="matrix(0.451244, 0, 0, 0.440593, -315.337854, -37.578442)"/>
    <pattern id="pattern-0-55" href="#pattern-0" patternTransform="matrix(0.451244, 0, 0, 0.440593, -332.528588, 54.678294)"/>
    <pattern id="pattern-0-56" href="#pattern-0" patternTransform="matrix(0.451244, 0, 0, 0.440593, -281.784265, 54.78136)"/>
    <pattern id="pattern-0-57" href="#pattern-0" patternTransform="matrix(0.451244, 0, 0, 0.440593, -384.034143, 54.680911)"/>
    <pattern id="pattern-0-58" href="#pattern-0" patternTransform="matrix(0.451244, 0, 0, 0.440593, -332.535302, 54.674289)"/>
    <pattern id="pattern-0-59" href="#pattern-0" patternTransform="matrix(0.451244, 0, 0, 0.440593, -278.629418, 55.568485)"/>
    <pattern id="pattern-0-60" href="#pattern-0" patternTransform="matrix(0.451244, 0, 0, 0.440593, -387.369714, 55.391582)"/>
    <pattern id="pattern-0-61" href="#pattern-0" patternTransform="matrix(0.451244, 0, 0, 0.440593, -332.576257, 54.783237)"/>
  </defs>
  <path opacity="1.000000" d="M 17.973 20.672 C 17.973 20.672 17.973 20.672 17.973 20.672 Z" style="fill-opacity: 0.96; stroke: url(&quot;#pattern-0-20&quot;); stroke-width: 0px; paint-order: stroke;" fill="#EFEFEF"/>
  <path opacity="1.000000" d="M 16.315 5.72 C 16.315 5.72 16.315 5.72 16.315 5.72 Z" style="fill-opacity: 0.96; stroke: url(&quot;#pattern-0-51&quot;); stroke-width: 0px; paint-order: stroke;" fill="#EFEFEF"/>
  <path opacity="1.000000" d="M 389.857 101.069 C 379.377 103.313 372.247 100.119 366.117 91.541 C 355.027 76.033 342.807 61.325 331.037 46.303 C 330.847 46.051 330.337 46.038 329.097 45.613 C 328.777 47.662 328.207 49.602 328.207 51.539 C 328.257 64.723 328.397 77.907 328.577 91.09 C 328.687 100.92 323.087 105.05 313.746 101.218 C 311.878 100.45 310.402 96.556 310.319 94.051 C 309.95 83.041 310.152 72.011 310.152 60.987 C 310.152 48.784 309.879 36.571 310.319 24.382 C 310.45 20.682 311.557 14.999 313.984 13.823 C 318.847 11.462 325.137 11.813 329.417 16.317 C 333.597 20.719 337.047 25.791 340.867 30.538 C 351.947 44.334 363.037 58.116 374.157 71.879 C 374.337 72.097 374.887 72.02 376.167 72.228 C 375.977 69.114 375.687 66.172 375.667 63.226 C 375.577 49.059 375.507 34.888 375.557 20.719 C 375.577 13.76 376.757 13.196 385.527 12.924 C 391.207 12.748 393.377 15.042 393.347 20.549 C 393.207 44.952 393.327 69.357 393.107 93.758 C 393.077 96.145 391.307 98.515 389.857 101.069 Z" style="paint-order: fill; fill-opacity: 0.96; fill: rgb(255, 255, 255);" stroke="none"/>
  <path opacity="1.000000" d="M 36.049 89.156 C 33.136 84.911 30.829 80.705 27.731 77.187 C 25.657 74.832 22.694 72.67 19.719 71.799 C 13.635 70.016 10.897 72.507 10.867 78.835 C 10.843 83.954 10.651 89.083 10.924 94.187 C 11.233 99.909 8.572 101.796 3.109 101.764 C -5.266 101.713 -7.393 100.609 -7.641 94.385 C -7.87 88.685 -7.688 82.968 -7.691 77.259 C -7.702 59.344 -7.744 41.43 -7.713 23.515 C -7.697 14.644 -6.149 12.986 2.522 13.053 C 13.411 13.138 24.364 12.812 35.171 13.865 C 50.603 15.369 59.8 23.679 62.392 36.793 C 64.836 49.159 58.516 60.769 45.351 68.113 C 44.677 68.488 44.03 68.906 42.717 69.698 C 49.577 79.664 56.327 89.47 63.085 99.286 C 52.481 105.096 43.884 101.885 36.049 89.156 M 25.748 57.898 C 29.177 57.067 32.699 56.495 36.014 55.342 C 40.698 53.711 43.267 50.264 43.811 45.234 C 45 34.249 40.126 28.482 28.783 28.491 C 8.369 28.507 10.912 25.655 10.874 45.628 C 10.849 59.014 9.505 57.928 25.748 57.898 Z" style="paint-order: fill; fill-opacity: 0.96; fill: rgb(255, 255, 255);" stroke="none"/>
  <path opacity="1.000000" d="M 431.597 20.708 C 431.197 15.38 433.627 13.364 438.257 13.336 C 454.517 13.235 470.767 13.164 487.007 12.91 C 492.917 12.819 493.757 16.361 493.827 20.984 C 493.897 25.651 492.327 28.575 487.097 28.537 C 476.777 28.462 466.467 28.694 456.177 28.357 C 451.447 28.202 449.837 30.323 449.387 34.464 C 447.817 48.873 448.607 49.787 463.197 49.771 C 469.337 49.764 475.487 49.919 481.637 49.726 C 486.977 49.559 488.467 52.418 488.497 57.083 C 488.537 61.737 487.007 64.698 481.777 64.657 C 473.647 64.594 465.507 64.827 457.397 64.507 C 451.847 64.287 449.517 66.396 449.317 71.936 C 448.767 87.499 448.967 87.729 464.737 87.108 C 472.257 86.811 479.797 87.084 487.317 86.801 C 493.127 86.583 494.817 89.323 494.797 94.704 C 494.757 100.295 491.987 101.822 487.007 101.792 C 471.347 101.699 455.687 101.785 440.037 101.745 C 432.187 101.725 431.437 100.911 431.447 92.716 C 431.487 68.892 431.547 45.068 431.597 20.708 Z" style="paint-order: fill; fill-opacity: 0.96; fill: rgb(255, 255, 255);" stroke="none"/>
  <path opacity="1.000000" d="M 622.127 43.407 C 629.377 61.084 636.447 78.346 643.577 95.581 C 645.097 99.278 643.897 101.019 640.037 101.641 C 630.357 103.201 627.137 101.466 623.517 92.287 C 619.507 82.143 621.657 81.586 607.807 81.792 C 602.057 81.877 596.287 82.064 590.547 81.724 C 584.157 81.346 581.077 84.937 579.467 90.21 C 575.987 101.653 575.387 102.071 564.047 101.735 C 559.017 101.586 557.657 99.813 559.627 95.146 C 564.257 84.107 568.747 73.001 573.287 61.915 C 578.707 48.64 584.147 35.372 589.517 22.074 C 593.027 13.39 597.917 10.723 607.137 13.231 C 608.907 13.713 610.887 15.604 611.627 17.329 C 615.287 25.791 618.557 34.416 622.127 43.407 M 611.087 58.881 C 607.967 51.078 604.857 43.274 601.187 34.087 C 596.687 46.263 592.797 56.785 588.847 67.506 C 597.267 67.506 604.807 67.506 612.857 67.506 C 612.257 64.374 611.797 62.089 611.087 58.881 Z" style="paint-order: fill; fill-opacity: 0.96; fill: rgb(255, 255, 255);" stroke="none"/>
  <path opacity="1.000000" d="M -93.821 81.812 C -99.51 82.415 -101.4 86.1 -102.8 90.428 C -106.68 102.398 -111.22 104.503 -124.69 100.261 C -119.34 87.05 -114.01 73.873 -108.67 60.705 C -103.5 47.99 -98.381 35.261 -93.111 22.59 C -91.001 17.511 -87.911 13.065 -81.851 12.427 C -76.991 11.914 -72.461 12.381 -70.181 18.032 C -59.541 44.393 -48.731 70.683 -38.016 97.013 C -37.666 97.874 -37.707 98.892 -37.574 99.769 C -47.381 104.784 -54.511 102.209 -58.071 92.545 C -62.031 81.807 -62.031 81.808 -73.691 81.811 C -80.231 81.813 -86.761 81.809 -93.821 81.812 M -89.601 55.314 C -90.771 59.351 -91.941 63.388 -93.171 67.611 C -84.501 67.611 -76.481 67.611 -67.911 67.611 C -72.221 56.3 -76.251 45.718 -80.911 33.515 C -84.061 41.559 -86.601 48.031 -89.601 55.314 Z" style="paint-order: fill; fill-opacity: 0.96; fill: rgb(255, 255, 255);" stroke="none"/>
  <path opacity="1.000000" d="M 248.41 16.316 C 257.485 38.099 266.303 59.498 275.132 80.892 C 277.143 85.792 279.238 90.665 281.249 95.569 C 282.772 99.297 282.082 101.747 277.429 101.736 C 275.049 101.732 272.669 101.666 270.301 101.703 C 266.041 101.77 263.59 100.078 262.078 95.768 C 257.152 81.738 256.962 81.805 241.958 81.811 C 236.804 81.812 231.643 81.969 226.497 81.761 C 222.307 81.592 219.769 83.417 218.393 87.181 C 217.584 89.395 216.853 91.642 215.943 93.815 C 212.688 101.582 207.44 103.888 199.272 101.508 C 194.873 100.228 196.484 97.331 197.401 94.94 C 200.424 87.07 203.706 79.297 206.867 71.48 C 213.709 54.566 220.468 37.619 227.402 20.743 C 231.041 11.888 240.407 9.81 248.41 16.316 M 249.536 62.184 C 246.093 53.231 242.649 44.279 239.206 35.326 C 238.594 35.514 237.98 35.703 237.367 35.891 C 234.088 45.266 230.694 54.605 227.706 64.072 C 227.389 65.074 229.398 67.978 230.438 68.036 C 237.085 68.405 243.763 68.224 251.071 68.224 C 250.441 65.658 250.131 64.385 249.536 62.184 Z" style="paint-order: fill; fill-opacity: 0.96; fill: rgb(255, 255, 255);" stroke="none"/>
  <path opacity="1.000000" d="M 154.669 13.64 C 159.495 16.028 164.026 18.004 168.228 20.52 C 170.859 22.094 174.937 23.377 172.715 28.023 C 170.05 33.588 164.297 36.53 159.799 34.535 C 155.659 32.698 151.745 30.228 147.465 28.862 C 133.217 24.312 117.723 31.665 113.119 45.818 C 108.663 59.519 110.606 78.387 130.327 85.758 C 141.001 89.747 150.352 86.592 159.106 80.141 C 160.895 78.823 164.321 77.204 165.453 77.969 C 168.904 80.302 171.677 83.669 174.491 86.829 C 174.793 87.168 173.879 89.036 173.119 89.78 C 156.718 105.841 125.953 108.612 105.85 90.043 C 89.649 75.077 88.238 43.263 103.843 27.257 C 117.734 13.007 134.649 8.01 154.669 13.64 Z" style="paint-order: fill; fill-opacity: 0.96; fill: rgb(255, 255, 255);" stroke="none"/>
  <path opacity="1.000000" d="M 690.907 20.507 C 690.907 44.485 690.907 67.899 690.897 91.315 C 690.897 100.924 687.817 103.354 678.037 101.635 C 674.437 101.002 672.797 99.529 672.837 95.457 C 673.037 70.469 672.917 45.479 672.947 20.49 C 672.967 13.894 673.907 13.116 681.257 12.973 C 690.197 12.799 690.557 13.053 690.907 20.507 Z" style="paint-order: fill; fill-opacity: 0.96; fill: rgb(255, 255, 255);" stroke="none"/>
  <path opacity="1.000000" d="M 25.213 57.901 C 9.505 57.928 10.849 59.014 10.874 45.628 C 10.912 25.655 8.369 28.507 28.783 28.491 C 40.126 28.482 45 34.249 43.811 45.234 C 43.267 50.264 40.698 53.711 36.014 55.342 C 32.699 56.495 29.177 57.067 25.213 57.901 Z" style="paint-order: fill; fill-opacity: 0.96; fill: rgba(0, 0, 0, 0.024);" stroke="none"/>
  <path opacity="1.000000" d="M 611.217 59.343 C 611.797 62.089 612.257 64.374 612.857 67.506 C 604.807 67.506 597.267 67.506 588.847 67.506 C 592.797 56.785 596.687 46.263 601.187 34.087 C 604.857 43.274 607.967 51.078 611.217 59.343 Z" style="paint-order: fill; fill-opacity: 0.96; fill: rgba(0, 0, 0, 0);" stroke="none"/>
  <path opacity="1.000000" d="M -89.371 54.909 C -86.601 48.031 -84.061 41.559 -80.911 33.515 C -76.251 45.718 -72.221 56.3 -67.911 67.611 C -76.481 67.611 -84.501 67.611 -93.171 67.611 C -91.941 63.388 -90.771 59.351 -89.371 54.909 Z" style="paint-order: fill; fill-opacity: 0.96; fill: rgba(0, 0, 0, 0);" stroke="none"/>
  <path opacity="1.000000" d="M 249.679 62.647 C 250.131 64.385 250.441 65.658 251.071 68.224 C 243.763 68.224 237.085 68.405 230.438 68.036 C 229.398 67.978 227.389 65.074 227.706 64.072 C 230.694 54.605 234.088 45.266 237.367 35.891 C 237.98 35.703 238.594 35.514 239.206 35.326 C 242.649 44.279 246.093 53.231 249.679 62.647 Z" style="paint-order: fill; fill-opacity: 0.96; fill: rgba(0, 0, 0, 0.027);" stroke="none"/>
  <path opacity="1.000000" d="M -328.41 118.919 C -328.02 127.958 -327.53 136.731 -327.32 145.511 C -327.26 148.009 -328.07 150.522 -328.4 153.039 C -328.48 153.718 -328.45 154.593 -328.08 155.087 C -327.83 155.421 -326.6 155.519 -326.33 155.235 C -325.92 154.798 -325.82 153.939 -325.83 153.263 C -325.9 148.445 -326.07 143.628 -326.11 138.81 C -326.16 132.775 -326.02 126.737 -326.15 120.704 C -326.2 118.094 -325.42 116.991 -322.6 116.833 C -288.06 114.882 -257.05 102.898 -228.52 83.873 C -227.58 83.244 -226.61 82.655 -225.63 82.08 C -225.4 81.946 -225.1 81.945 -224.8 81.877 C -231.45 117.919 -266.46 158.037 -316.32 162.44 C -382.21 168.26 -422.57 119.709 -429.32 81.73 C -427.8 82.693 -426.52 83.469 -425.28 84.298 C -404.96 97.868 -383.04 107.931 -359.13 113.244 C -351.36 114.971 -343.28 115.37 -335.34 116.361 C -333.63 116.575 -331.87 116.579 -330.2 116.974 C -329.51 117.137 -329 118.072 -328.41 118.919 M -343.53 126.72 C -342.67 126.415 -341.73 126.238 -340.97 125.764 C -340.46 125.446 -340.11 124.744 -339.92 124.141 C -339.84 123.898 -340.42 123.142 -340.61 123.172 C -341.29 123.273 -342.08 123.458 -342.54 123.907 C -343.25 124.599 -343.71 125.536 -344.6 126.572 C -344.73 126.782 -344.87 126.991 -344.99 127.2 C -344.66 127.047 -344.31 126.893 -343.53 126.72 M -350.58 129.859 C -352.2 130.085 -353.82 130.311 -355.44 130.538 C -355.46 130.792 -355.47 131.046 -355.49 131.301 C -352.3 130.679 -349.24 130.29 -348.91 134.395 C -347.96 132.237 -346.99 130.046 -346.02 127.845 C -347.45 128.456 -348.81 129.04 -350.58 129.859 M -257.21 112.527 C -256.85 111.589 -256.5 110.65 -256.04 109.423 C -261.46 113.117 -260.71 112.334 -257.91 118.253 C -257.7 116.319 -257.53 114.656 -257.21 112.527 M -255.38 126.599 C -255.99 125.032 -256.61 123.466 -257.4 121.451 C -257.72 123.267 -258.1 124.638 -258.15 126.022 C -258.18 126.863 -257.69 127.721 -257.44 128.571 C -256.68 128.037 -255.92 127.501 -255.38 126.599 M -381.76 137.66 C -379.9 137.64 -379.22 136.494 -380.07 135.095 C -380.84 133.822 -382.28 132.948 -383.91 131.453 C -383.23 133.916 -382.73 135.737 -381.76 137.66 M -248.75 100.415 C -249.2 99.808 -249.55 98.964 -250.16 98.693 C -250.47 98.553 -251.52 99.315 -251.75 99.869 C -252.3 101.223 -252.56 102.694 -252.95 104.183 C -251.44 102.926 -250.17 101.875 -248.75 100.415 M -346.22 152.878 C -344.3 150.641 -347.77 149.528 -347.23 147.558 C -347.74 148.519 -348.01 149.504 -348.45 150.399 C -349.49 152.481 -348.48 153.095 -346.22 152.878 M -274.73 132.551 C -273.97 132.005 -273.2 131.461 -272.44 130.916 C -273.07 130.479 -273.73 129.65 -274.34 129.68 C -276.1 129.763 -277.84 130.195 -278.98 130.387 C -277.97 130.912 -276.55 131.652 -274.73 132.551 M -285.26 118.062 C -285.72 117.308 -286.18 116.554 -286.65 115.8 C -287.1 116.4 -287.76 116.939 -287.98 117.616 C -288.36 118.812 -288.48 120.095 -288.71 121.34 C -288.56 121.414 -288.41 121.489 -288.25 121.563 C -287.35 120.503 -286.45 119.443 -285.26 118.062 M -304.76 151.611 C -305.81 149.839 -306.86 148.067 -308.33 145.578 C -308.03 148.101 -308 149.812 -307.51 151.384 C -307.39 151.806 -305.87 151.808 -304.76 151.611 M -393.9 103.582 C -394.76 103.312 -395.74 102.644 -396.45 102.86 C -397.79 103.263 -398.98 104.176 -399.93 104.709 C -399.06 104.863 -397.85 105.309 -396.69 105.214 C -395.68 105.131 -394.72 104.431 -393.9 103.582 M -407.17 106.142 C -408.56 105.905 -409.95 105.541 -411.35 105.492 C -411.95 105.47 -412.78 105.984 -413.08 106.501 C -413.29 106.844 -412.92 107.892 -412.51 108.136 C -412.02 108.429 -411.15 108.385 -410.56 108.164 C -409.45 107.742 -408.42 107.091 -407.17 106.142 M -293.8 127.621 C -293.78 128.363 -293.95 129.211 -293.64 129.803 C -293.47 130.126 -291.98 130.222 -291.92 130.065 C -291.33 128.71 -290.93 127.274 -290.47 125.863 C -290.68 125.761 -290.88 125.658 -291.08 125.555 C -291.89 126.134 -292.7 126.713 -293.8 127.621 M -388.72 122.264 C -388.26 122.401 -387.81 122.537 -387.36 122.673 C -387.27 121.544 -387.18 120.417 -387.1 119.288 C -387.84 119.232 -388.81 118.851 -389.28 119.181 C -390.54 120.064 -390.45 121.19 -388.72 122.264 M -313.33 133.984 C -315.21 136.629 -312.69 137.093 -310.79 138.538 C -311.83 136.635 -309.07 133.877 -313.33 133.984 M -359.37 149.125 C -359.86 148.851 -360.31 148.459 -360.84 148.332 C -361.69 148.123 -362.6 148.086 -363.48 147.977 C -363.48 148.934 -363.48 149.893 -363.48 151.432 C -361.43 150.425 -360.2 149.818 -359.37 149.125 M -365.95 132.042 C -364.1 134.539 -362.93 132.169 -361.53 131.366 C -363.04 131.278 -364.65 128.377 -365.95 132.042 M -285.11 143.877 C -284.57 144.668 -284.03 145.459 -283.49 146.249 C -283.07 145.526 -282.65 144.803 -282.23 144.079 C -283.12 143.873 -284.02 143.666 -285.11 143.877 M -253.19 105.171 C -253.29 105.149 -253.4 105.128 -253.51 105.107 C -253.44 105.098 -253.36 105.09 -253.19 105.171 M -288.88 122.401 C -288.88 122.401 -288.86 122.4 -288.88 122.401 Z" style="paint-order: fill; fill-opacity: 0.96; fill: rgb(255, 255, 255);" stroke="none"/>
  <path opacity="1.000000" d="M -205.23 63.666 C -220.33 74.006 -234.95 84.679 -251.1 93.008 C -267.6 101.512 -284.81 108.004 -303.16 111.047 C -314.23 112.882 -325.4 113.246 -336.68 112.543 C -370.08 110.464 -399.15 97.097 -426.57 79.205 C -434.87 73.784 -443.03 68.13 -451.24 62.563 C -451.69 62.255 -452.02 61.763 -452.72 61.024 C -449.79 58.904 -446.97 56.865 -444.15 54.838 C -426.01 41.798 -407.52 29.363 -386.78 20.633 C -373.09 14.873 -358.96 10.723 -344.22 8.873 C -316.64 5.393 -290.44 10.643 -265.19 21.683 C -246.96 29.643 -230.55 40.614 -214.38 51.998 C -210.94 54.412 -207.47 56.765 -204.03 59.169 C -203.28 59.697 -202.59 60.322 -201.55 61.157 C -202.92 62.09 -203.98 62.821 -205.23 63.666 M -279.51 95.18 C -256.98 87.812 -237.44 75.16 -218.33 61 C -219.11 60.367 -219.58 59.891 -220.14 59.528 C -231.28 52.256 -242.04 44.29 -253.66 37.877 C -281.89 22.293 -312.02 14.803 -344.54 19.143 C -356.24 20.703 -367.55 23.553 -378.62 27.593 C -397.73 34.563 -414.69 45.286 -430.95 57.235 C -436.04 60.979 -435.98 61.056 -430.69 64.889 C -430.3 65.17 -429.97 65.521 -429.58 65.8 C -402.53 85.196 -373.5 99.992 -339.61 102.567 C -329.8 103.311 -319.77 103.456 -310.05 102.255 C -299.87 100.999 -289.94 97.792 -279.51 95.18 Z" style="paint-order: fill; fill-opacity: 0.96; fill: rgb(255, 255, 255);" stroke="none"/>
  <path opacity="1.000000" d="M -376.48 -37.327 C -365.87 -42.747 -354.83 -46.307 -343.39 -48.557 C -339.65 -49.297 -335.78 -49.367 -331.97 -49.677 C -330.05 -49.837 -328.91 -49.107 -328.91 -46.927 C -328.94 -30.737 -328.94 -14.547 -328.9 1.633 C -328.9 3.443 -329.66 4.173 -331.46 4.253 C -357.77 5.393 -382.08 13.383 -405.16 25.623 C -407.19 26.693 -409.38 27.443 -411.78 28.463 C -411.8 29.123 -424.09 37.787 -430.85 41.032 C -430.32 37.958 -430.06 35.323 -429.41 32.773 C -424.17 11.973 -414.92 -6.677 -399.1 -21.587 C -392.43 -27.887 -384.97 -33.177 -376.48 -37.327 M -379.81 -21.207 C -379.78 -20.897 -379.74 -20.587 -379.71 -20.277 C -379.61 -20.287 -379.52 -20.297 -379.42 -20.307 C -379.42 -20.627 -379.42 -20.947 -379.73 -21.617 C -379.64 -22.637 -379.31 -23.717 -379.53 -24.667 C -379.71 -25.467 -380.53 -26.127 -381.06 -26.837 C -381.6 -26.307 -382.68 -25.407 -382.61 -25.297 C -381.63 -23.887 -380.48 -22.587 -379.81 -21.207 M -362.46 -25.607 C -362.61 -25.567 -362.78 -25.537 -362.93 -25.507 C -362.79 -25.357 -362.65 -25.207 -362.38 -24.687 C -359.66 -23.017 -358.79 -20.417 -358.84 -17.347 C -358.13 -19.237 -356.66 -21.457 -357.24 -22.767 C -357.85 -24.117 -360.46 -24.567 -362.46 -25.607 M -343.5 -37.967 C -343.18 -37.417 -342.84 -36.857 -342.47 -36.237 C -342.18 -37.227 -341.67 -38.117 -341.73 -38.967 C -341.81 -39.857 -342.43 -40.707 -342.8 -41.567 C -343.42 -41.297 -344.57 -41.007 -344.56 -40.747 C -344.53 -39.917 -344.09 -39.087 -343.5 -37.967 M -337.43 -13.467 C -337.58 -12.537 -338.09 -11.447 -337.77 -10.707 C -337.46 -9.997 -336.31 -9.647 -335.53 -9.147 C -335.27 -9.707 -334.64 -10.527 -334.82 -10.797 C -335.59 -11.927 -336.6 -12.897 -337.43 -13.467 M -376.77 -9.177 C -376.82 -8.807 -377.01 -8.357 -376.88 -8.057 C -376.59 -7.357 -376.23 -6.617 -375.69 -6.137 C -375.46 -5.937 -374.22 -6.377 -374.22 -6.517 C -374.23 -7.287 -374.35 -8.127 -374.69 -8.807 C -375.21 -9.837 -375.95 -10.767 -376.96 -12.297 C -376.86 -10.947 -376.81 -10.307 -376.77 -9.177 M -366.76 -29.707 C -367 -30.107 -367.14 -30.647 -367.49 -30.887 C -368.13 -31.317 -368.87 -31.697 -369.61 -31.807 C -369.86 -31.847 -370.6 -30.787 -370.48 -30.527 C -370.16 -29.857 -369.59 -29.147 -368.94 -28.807 C -368.07 -28.357 -367.03 -28.237 -365.69 -27.877 C -366.07 -28.597 -366.28 -28.977 -366.76 -29.707 M -386.44 -2.667 C -385.75 -3.097 -384.97 -3.447 -384.42 -4.017 C -384.28 -4.177 -384.91 -5.477 -385.11 -5.457 C -385.85 -5.387 -386.63 -5.087 -387.27 -4.687 C -388.09 -4.177 -388.8 -3.477 -389.81 -2.667 C -388.7 -2.667 -387.82 -2.667 -386.44 -2.667 M -360.41 -3.327 C -356.65 -4.977 -360.88 -7.407 -359.65 -9.297 C -360.22 -8.207 -360.85 -7.147 -361.09 -6.017 C -361.26 -5.267 -360.87 -4.397 -360.41 -3.327 M -420.43 21.273 C -420.94 21.923 -421.47 22.573 -421.99 23.223 C -420.92 23.683 -419.85 24.143 -418.79 24.593 C -418.58 24.253 -418.38 23.913 -418.18 23.573 C -418.79 22.863 -419.39 22.153 -420.43 21.273 M -404.61 3.333 C -403.96 3.663 -403.32 3.993 -402.18 4.573 C -402.28 3.123 -402.24 2.053 -402.51 1.073 C -402.56 0.843 -404.01 0.623 -404.25 0.893 C -404.68 1.393 -404.68 2.253 -404.61 3.333 M -399.09 10.453 C -399.32 10.143 -399.55 9.823 -399.96 9.263 C -399.96 10.773 -400.16 11.963 -399.86 13.003 C -399.72 13.493 -398.62 13.713 -397.94 14.053 C -397.7 13.353 -397.21 12.613 -397.31 11.963 C -397.38 11.513 -398.26 11.183 -399.09 10.453 Z" style="paint-order: fill; fill-opacity: 0.96; fill: rgb(255, 255, 255);" stroke="none"/>
  <path opacity="1.000000" d="M -316.22 4.803 C -318.4 4.613 -320.31 4.183 -322.21 4.293 C -324.88 4.433 -325.79 3.353 -325.75 0.813 C -325.64 -6.287 -325.65 -13.377 -325.64 -20.467 C -325.62 -29.947 -325.64 -39.437 -325.64 -49.457 C -301.94 -49.107 -280.87 -42.017 -262.53 -27.457 C -240.6 -10.057 -228.28 12.893 -223.68 40.098 C -223.88 40.285 -224.09 40.473 -224.3 40.661 C -224.99 40.27 -225.71 39.92 -226.36 39.479 C -244.97 26.953 -264.62 16.543 -286.32 10.343 C -296.02 7.573 -305.86 5.503 -316.22 4.803 M -309.42 -32.367 C -309.61 -32.347 -309.81 -32.327 -310.01 -32.307 C -309.87 -32.127 -309.73 -31.937 -309.55 -31.537 C -309.48 -31.387 -309.38 -31.277 -309.04 -30.857 C -308.4 -30.067 -307.76 -29.277 -307.05 -28.057 C -306.43 -26.117 -305.81 -24.167 -305.14 -21.677 C -304.59 -18.237 -306.57 -15.707 -308.6 -12.987 C -308.61 -12.827 -308.62 -12.677 -308.62 -12.517 C -308.4 -12.607 -308.19 -12.687 -307.56 -12.947 C -306.46 -13.137 -305.36 -13.337 -304.04 -13.577 C -304.17 -14.437 -304.43 -15.627 -304.55 -16.837 C -304.71 -18.627 -304.77 -20.427 -304.74 -22.647 C -304.12 -24.337 -303.5 -26.037 -302.82 -27.897 C -304.28 -28.337 -305.5 -28.697 -306.91 -29.347 C -307.52 -30.057 -308.13 -30.767 -308.82 -31.767 C -308.99 -31.847 -309.17 -31.937 -309.42 -32.367 M -267.13 -7.437 C -266.81 -7.397 -266.49 -7.357 -266.17 -7.327 C -266.37 -7.607 -266.57 -7.887 -267.02 -8.477 C -267.89 -9.347 -268.69 -10.317 -269.67 -11.037 C -270.09 -11.337 -271.08 -11.337 -271.49 -11.027 C -271.87 -10.757 -272.06 -9.827 -271.9 -9.317 C -271.75 -8.847 -271.07 -8.377 -270.54 -8.237 C -269.48 -7.967 -268.36 -7.927 -267.13 -7.437 M -312.79 -35.667 C -312.65 -35.647 -312.51 -35.637 -312.37 -35.617 C -312.42 -35.847 -312.46 -36.077 -312.71 -36.687 C -312.94 -37.687 -313.02 -38.767 -313.47 -39.647 C -313.73 -40.157 -314.6 -40.587 -315.22 -40.617 C -315.73 -40.647 -316.7 -40.067 -316.72 -39.707 C -316.76 -39.087 -316.4 -38.217 -315.91 -37.817 C -315.01 -37.067 -313.89 -36.577 -312.79 -35.667 M -256.76 0.793 C -255.02 0.313 -254.42 -0.837 -255.96 -1.897 C -257.45 -2.927 -259.38 -3.327 -261.11 -4.007 C -261.15 -3.877 -261.18 -3.747 -261.22 -3.617 C -260.31 -2.887 -259.4 -2.157 -257.98 -1.027 C -259.69 -0.607 -260.73 -0.357 -262.33 0.033 C -260.24 0.343 -258.74 0.573 -256.76 0.793 M -272.69 1.693 C -271.34 1.513 -269.98 1.323 -269.09 1.193 C -271.41 0.413 -274.08 -0.487 -276.77 -1.387 C -275.62 3.393 -275.62 3.393 -272.69 1.693 M -244.67 12.513 C -243.8 12.823 -242.93 13.133 -242.02 13.463 C -242.02 11.753 -241.05 9.453 -243.78 9.543 C -245.2 9.583 -246.59 10.883 -247.9 11.563 C -247 11.773 -246.03 12.013 -244.67 12.513 M -277.62 -21.947 C -277.57 -21.367 -277.52 -20.797 -277.47 -20.217 C -278.36 -22.647 -272.98 -24.817 -276.85 -27.397 C -280.34 -26.067 -277.31 -24.037 -277.62 -21.947 M -235.24 26.093 C -234.62 25.583 -234 25.073 -233.38 24.563 C -234.44 23.433 -235.49 22.303 -236.55 21.173 C -236.76 21.323 -236.97 21.473 -237.18 21.623 C -236.69 23.103 -236.2 24.583 -235.24 26.093 M -293 -37.717 C -294.16 -36.587 -295.31 -35.447 -296.46 -34.307 C -296.19 -34.077 -295.93 -33.857 -295.66 -33.627 C -294.64 -34.897 -290.61 -33.497 -293 -37.717 M -293.81 -1.957 C -293.03 -5.457 -296.32 -4.737 -298.23 -6.577 C -295.89 -1.707 -295.89 -1.707 -293.81 -1.957 M -259.9 14.183 C -258.73 13.633 -257.56 13.083 -256.38 12.523 C -257.52 12.223 -258.6 11.773 -259.7 11.713 C -260.48 11.663 -261.3 12.143 -262.09 12.383 C -261.48 13.073 -260.88 13.753 -259.9 14.183 M -315.42 -7.247 C -316.13 -7.057 -316.97 -7.047 -317.52 -6.647 C -318.03 -6.267 -318.46 -5.487 -318.48 -4.867 C -318.5 -4.537 -317.56 -3.857 -317.09 -3.887 C -316.56 -3.927 -315.9 -4.467 -315.59 -4.977 C -315.26 -5.487 -315.28 -6.227 -315.42 -7.247 M -303.86 -12.157 C -303.86 -12.157 -303.89 -12.157 -303.86 -12.157 Z" style="paint-order: fill; fill-opacity: 0.96; fill: rgb(255, 255, 255);" stroke="none"/>
  <path opacity="1.000000" d="M -350.38 129.741 C -348.81 129.04 -347.45 128.456 -346.02 127.845 C -346.99 130.046 -347.96 132.237 -348.91 134.395 C -349.24 130.29 -352.3 130.679 -355.49 131.301 C -355.47 131.046 -355.46 130.792 -355.44 130.538 C -353.82 130.311 -352.2 130.085 -350.38 129.741 Z" style="fill-opacity: 0.96; stroke: url(&quot;#pattern-0-0&quot;); stroke-width: 0px; paint-order: stroke; fill: rgba(239, 239, 239, 0);"/>
  <path opacity="1.000000" d="M -257.28 112.76 C -257.53 114.656 -257.7 116.319 -257.91 118.253 C -260.71 112.334 -261.46 113.117 -256.04 109.423 C -256.5 110.65 -256.85 111.589 -257.28 112.76 Z" style="fill-opacity: 0.96; stroke: url(&quot;#pattern-0-1&quot;); stroke-width: 0px; paint-order: stroke; fill: rgba(239, 239, 239, 0);"/>
  <path opacity="1.000000" d="M -255.27 126.782 C -255.92 127.501 -256.68 128.037 -257.44 128.571 C -257.69 127.721 -258.18 126.863 -258.15 126.022 C -258.1 124.638 -257.72 123.267 -257.4 121.451 C -256.61 123.466 -255.99 125.032 -255.27 126.782 Z" style="fill-opacity: 0.96; stroke: url(&quot;#pattern-0-2&quot;); stroke-width: 0px; paint-order: stroke; fill: rgba(239, 239, 239, 0);"/>
  <path opacity="1.000000" d="M -381.99 137.61 C -382.73 135.737 -383.23 133.916 -383.91 131.453 C -382.28 132.948 -380.84 133.822 -380.07 135.095 C -379.22 136.494 -379.9 137.64 -381.99 137.61 Z" style="fill-opacity: 0.96; stroke: url(&quot;#pattern-0-3&quot;); stroke-width: 0px; paint-order: stroke; fill: rgba(239, 239, 239, 0);"/>
  <path opacity="1.000000" d="M -248.82 100.619 C -250.17 101.875 -251.44 102.926 -252.95 104.183 C -252.56 102.694 -252.3 101.223 -251.75 99.869 C -251.52 99.315 -250.47 98.553 -250.16 98.693 C -249.55 98.964 -249.2 99.808 -248.82 100.619 Z" style="fill-opacity: 0.96; stroke: url(&quot;#pattern-0-4&quot;); stroke-width: 0px; paint-order: stroke; fill: rgba(239, 239, 239, 0);"/>
  <path opacity="1.000000" d="M -346.4 153.017 C -348.48 153.095 -349.49 152.481 -348.45 150.399 C -348.01 149.504 -347.74 148.519 -347.23 147.558 C -347.77 149.528 -344.3 150.641 -346.4 153.017 Z" style="fill-opacity: 0.96; stroke: url(&quot;#pattern-0-5&quot;); stroke-width: 0px; paint-order: stroke; fill: rgba(239, 239, 239, 0);"/>
  <path opacity="1.000000" d="M -274.93 132.471 C -276.55 131.652 -277.97 130.912 -278.98 130.387 C -277.84 130.195 -276.1 129.763 -274.34 129.68 C -273.73 129.65 -273.07 130.479 -272.44 130.916 C -273.2 131.461 -273.97 132.005 -274.93 132.471 Z" style="fill-opacity: 0.96; stroke: url(&quot;#pattern-0-6&quot;); stroke-width: 0px; paint-order: stroke; fill: rgba(239, 239, 239, 0);"/>
  <path opacity="1.000000" d="M -285.4 118.222 C -286.45 119.443 -287.35 120.503 -288.25 121.563 C -288.41 121.489 -288.56 121.414 -288.71 121.34 C -288.48 120.095 -288.36 118.812 -287.98 117.616 C -287.76 116.939 -287.1 116.4 -286.65 115.8 C -286.18 116.554 -285.72 117.308 -285.4 118.222 Z" style="fill-opacity: 0.96; stroke: url(&quot;#pattern-0-7&quot;); stroke-width: 0px; paint-order: stroke; fill: rgba(239, 239, 239, 0);"/>
  <path opacity="1.000000" d="M -304.88 151.806 C -305.87 151.808 -307.39 151.806 -307.51 151.384 C -308 149.812 -308.03 148.101 -308.33 145.578 C -306.86 148.067 -305.81 149.839 -304.88 151.806 Z" style="fill-opacity: 0.96; stroke: url(&quot;#pattern-0-8&quot;); stroke-width: 0px; paint-order: stroke; fill: rgba(239, 239, 239, 0);"/>
  <path opacity="1.000000" d="M -393.82 103.793 C -394.72 104.431 -395.68 105.131 -396.69 105.214 C -397.85 105.309 -399.06 104.863 -399.93 104.709 C -398.98 104.176 -397.79 103.263 -396.45 102.86 C -395.74 102.644 -394.76 103.312 -393.82 103.793 Z" style="fill-opacity: 0.96; stroke: url(&quot;#pattern-0-9&quot;); stroke-width: 0px; paint-order: stroke; fill: rgba(239, 239, 239, 0);"/>
  <path opacity="1.000000" d="M -407.26 106.338 C -408.42 107.091 -409.45 107.742 -410.56 108.164 C -411.15 108.385 -412.02 108.429 -412.51 108.136 C -412.92 107.892 -413.29 106.844 -413.08 106.501 C -412.78 105.984 -411.95 105.47 -411.35 105.492 C -409.95 105.541 -408.56 105.905 -407.26 106.338 Z" style="fill-opacity: 0.96; stroke: url(&quot;#pattern-0-10&quot;); stroke-width: 0px; paint-order: stroke; fill: rgba(239, 239, 239, 0);"/>
  <path opacity="1.000000" d="M -293.66 127.457 C -292.7 126.713 -291.89 126.134 -291.08 125.555 C -290.88 125.658 -290.68 125.761 -290.47 125.863 C -290.93 127.274 -291.33 128.71 -291.92 130.065 C -291.98 130.222 -293.47 130.126 -293.64 129.803 C -293.95 129.211 -293.78 128.363 -293.66 127.457 Z" style="fill-opacity: 0.96; stroke: url(&quot;#pattern-0-11&quot;); stroke-width: 0px; paint-order: stroke; fill: rgba(239, 239, 239, 0);"/>
  <path opacity="1.000000" d="M -388.94 122.196 C -390.45 121.19 -390.54 120.064 -389.28 119.181 C -388.81 118.851 -387.84 119.232 -387.1 119.288 C -387.18 120.417 -387.27 121.544 -387.36 122.673 C -387.81 122.537 -388.26 122.401 -388.94 122.196 Z" style="fill-opacity: 0.96; stroke: url(&quot;#pattern-0-12&quot;); stroke-width: 0px; paint-order: stroke; fill: rgba(239, 239, 239, 0);"/>
  <path opacity="1.000000" d="M -313.16 133.848 C -309.07 133.877 -311.83 136.635 -310.79 138.538 C -312.69 137.093 -315.21 136.629 -313.16 133.848 Z" style="fill-opacity: 0.96; stroke: url(&quot;#pattern-0-13&quot;); stroke-width: 0px; paint-order: stroke; fill: rgba(239, 239, 239, 0);"/>
  <path opacity="1.000000" d="M -359.16 149.168 C -360.2 149.818 -361.43 150.425 -363.48 151.432 C -363.48 149.893 -363.48 148.934 -363.48 147.977 C -362.6 148.086 -361.69 148.123 -360.84 148.332 C -360.31 148.459 -359.86 148.851 -359.16 149.168 Z" style="fill-opacity: 0.96; stroke: url(&quot;#pattern-0-14&quot;); stroke-width: 0px; paint-order: stroke; fill: rgba(239, 239, 239, 0);"/>
  <path opacity="1.000000" d="M -365.99 131.808 C -364.65 128.377 -363.04 131.278 -361.53 131.366 C -362.93 132.169 -364.1 134.539 -365.99 131.808 Z" style="fill-opacity: 0.96; stroke: url(&quot;#pattern-0-15&quot;); stroke-width: 0px; paint-order: stroke; fill: rgba(243, 243, 243, 0);"/>
  <path opacity="1.000000" d="M -344.28 126.369 C -343.71 125.536 -343.25 124.599 -342.54 123.907 C -342.08 123.458 -341.29 123.273 -340.61 123.172 C -340.42 123.142 -339.84 123.898 -339.92 124.141 C -340.11 124.744 -340.46 125.446 -340.97 125.764 C -341.73 126.238 -342.67 126.415 -343.83 126.637 C -344.12 126.554 -344.28 126.369 -344.28 126.369 Z" style="fill-opacity: 0.96; stroke: url(&quot;#pattern-0-16&quot;); stroke-width: 0px; paint-order: stroke; fill: rgba(243, 243, 243, 0);"/>
  <path opacity="1.000000" d="M -285.02 143.668 C -284.02 143.666 -283.12 143.873 -282.23 144.079 C -282.65 144.803 -283.07 145.526 -283.49 146.249 C -284.03 145.459 -284.57 144.668 -285.02 143.668 Z" style="fill-opacity: 0.96; stroke: url(&quot;#pattern-0-17&quot;); stroke-width: 0px; paint-order: stroke; fill: rgba(239, 239, 239, 0);"/>
  <path opacity="1.000000" d="M -253.24 105.127 C -253.36 105.09 -253.44 105.098 -253.51 105.107 C -253.4 105.128 -253.29 105.149 -253.24 105.127 Z" style="fill-opacity: 0.96; stroke: url(&quot;#pattern-0-18&quot;); stroke-width: 0px; paint-order: stroke;" fill="#EFEFEF"/>
  <path opacity="1.000000" d="M -344.05 126.647 C -344.31 126.893 -344.66 127.047 -344.99 127.2 C -344.87 126.991 -344.73 126.782 -344.44 126.471 C -344.28 126.369 -344.12 126.554 -344.05 126.647 Z" style="fill-opacity: 0.96; stroke: url(&quot;#pattern-0-19&quot;); stroke-width: 0px; paint-order: stroke;" fill="#F3F3F3"/>
  <path opacity="1.000000" d="M -288.87 122.4 C -288.86 122.4 -288.88 122.401 -288.87 122.4 Z" style="fill-opacity: 0.96; stroke-width: 0px; paint-order: stroke; stroke: url(&quot;#pattern-1&quot;);" fill="#EFEFEF"/>
  <path opacity="1.000000" d="M -279.71 95.308 C -289.94 97.792 -299.87 100.999 -310.05 102.255 C -319.77 103.456 -329.8 103.311 -339.61 102.567 C -373.5 99.992 -402.53 85.196 -429.58 65.8 C -429.97 65.521 -430.3 65.17 -430.69 64.889 C -435.98 61.056 -436.04 60.979 -430.95 57.235 C -414.69 45.286 -397.73 34.563 -378.62 27.593 C -367.55 23.553 -356.24 20.703 -344.54 19.143 C -312.02 14.803 -281.89 22.293 -253.66 37.877 C -242.04 44.29 -231.28 52.256 -220.14 59.528 C -219.58 59.891 -219.11 60.367 -218.33 61 C -237.44 75.16 -256.98 87.812 -279.71 95.308 M -344.99 88.948 C -337.94 93.745 -330 95.18 -321.83 93.804 C -309.32 91.696 -300.14 84.644 -295.89 72.614 C -291.6 60.474 -292.46 48.52 -301.32 38.417 C -317.45 20.013 -341.95 23.303 -354.49 40.928 C -364.22 54.598 -362.42 77.037 -344.99 88.948 M -258.83 48.467 C -273.52 38.256 -289.48 30.813 -306.98 26.763 C -308.04 26.523 -309.21 26.733 -311.12 26.733 C -285.79 39.207 -281.38 77.073 -309.01 93.932 C -283.44 89.512 -261.6 77.456 -241.16 60.995 C -247.18 56.701 -252.82 52.682 -258.83 48.467 M -408.05 64.877 C -387.79 80.265 -356.28 94.605 -344.42 93.643 C -356.99 85.773 -363.59 74.877 -363.73 60.064 C -363.88 45.178 -356.85 34.623 -344.08 26.683 C -359.62 27.303 -403.25 49.563 -412.7 61.366 C -411.25 62.448 -409.81 63.53 -408.05 64.877 Z" style="fill-opacity: 0.96; stroke: url(&quot;#pattern-0-21&quot;); stroke-width: 0px; paint-order: stroke;"/>
  <path opacity="1.000000" d="M -362.19 -25.407 C -360.46 -24.567 -357.85 -24.117 -357.24 -22.767 C -356.66 -21.457 -358.13 -19.237 -358.84 -17.347 C -358.79 -20.417 -359.66 -23.017 -362.36 -24.957 C -362.34 -25.237 -362.19 -25.407 -362.19 -25.407 Z" style="fill-opacity: 0.96; stroke: url(&quot;#pattern-0-22&quot;); stroke-width: 0px; paint-order: stroke; fill: rgba(243, 243, 243, 0);"/>
  <path opacity="1.000000" d="M -343.65 -38.107 C -344.09 -39.087 -344.53 -39.917 -344.56 -40.747 C -344.57 -41.007 -343.42 -41.297 -342.8 -41.567 C -342.43 -40.707 -341.81 -39.857 -341.73 -38.967 C -341.67 -38.117 -342.18 -37.227 -342.47 -36.237 C -342.84 -36.857 -343.18 -37.417 -343.65 -38.107 Z" style="fill-opacity: 0.96; stroke: url(&quot;#pattern-0-23&quot;); stroke-width: 0px; paint-order: stroke; fill: rgba(239, 239, 239, 0);"/>
  <path opacity="1.000000" d="M -379.38 -21.257 C -380.48 -22.587 -381.63 -23.887 -382.61 -25.297 C -382.68 -25.407 -381.6 -26.307 -381.06 -26.837 C -380.53 -26.127 -379.71 -25.467 -379.53 -24.667 C -379.31 -23.717 -379.64 -22.637 -379.57 -21.427 C -379.41 -21.237 -379.38 -21.257 -379.38 -21.257 Z" style="fill-opacity: 0.96; stroke: url(&quot;#pattern-0-24&quot;); stroke-width: 0px; paint-order: stroke; fill: rgba(243, 243, 243, 0);"/>
  <path opacity="1.000000" d="M -337.48 -13.697 C -336.6 -12.897 -335.59 -11.927 -334.82 -10.797 C -334.64 -10.527 -335.27 -9.707 -335.53 -9.147 C -336.31 -9.647 -337.46 -9.997 -337.77 -10.707 C -338.09 -11.447 -337.58 -12.537 -337.48 -13.697 Z" style="fill-opacity: 0.96; stroke: url(&quot;#pattern-0-25&quot;); stroke-width: 0px; paint-order: stroke; fill: rgba(239, 239, 239, 0);"/>
  <path opacity="1.000000" d="M -376.77 -9.427 C -376.81 -10.307 -376.86 -10.947 -376.96 -12.297 C -375.95 -10.767 -375.21 -9.837 -374.69 -8.807 C -374.35 -8.127 -374.23 -7.287 -374.22 -6.517 C -374.22 -6.377 -375.46 -5.937 -375.69 -6.137 C -376.23 -6.617 -376.59 -7.357 -376.88 -8.057 C -377.01 -8.357 -376.82 -8.807 -376.77 -9.427 Z" style="fill-opacity: 0.96; stroke: url(&quot;#pattern-0-26&quot;); stroke-width: 0px; paint-order: stroke; fill: rgba(243, 243, 243, 0);"/>
  <path opacity="1.000000" d="M -366.62 -29.537 C -366.28 -28.977 -366.07 -28.597 -365.69 -27.877 C -367.03 -28.237 -368.07 -28.357 -368.94 -28.807 C -369.59 -29.147 -370.16 -29.857 -370.48 -30.527 C -370.6 -30.787 -369.86 -31.847 -369.61 -31.807 C -368.87 -31.697 -368.13 -31.317 -367.49 -30.887 C -367.14 -30.647 -367 -30.107 -366.62 -29.537 Z" style="fill-opacity: 0.96; stroke: url(&quot;#pattern-0-27&quot;); stroke-width: 0px; paint-order: stroke; fill: rgba(243, 243, 243, 0);"/>
  <path opacity="1.000000" d="M -386.68 -2.667 C -387.82 -2.667 -388.7 -2.667 -389.81 -2.667 C -388.8 -3.477 -388.09 -4.177 -387.27 -4.687 C -386.63 -5.087 -385.85 -5.387 -385.11 -5.457 C -384.91 -5.477 -384.28 -4.177 -384.42 -4.017 C -384.97 -3.447 -385.75 -3.097 -386.68 -2.667 Z" style="fill-opacity: 0.96; stroke: url(&quot;#pattern-0-28&quot;); stroke-width: 0px; paint-order: stroke; fill: rgba(243, 243, 243, 0);"/>
  <path opacity="1.000000" d="M -360.57 -3.457 C -360.87 -4.397 -361.26 -5.267 -361.09 -6.017 C -360.85 -7.147 -360.22 -8.207 -359.65 -9.297 C -360.88 -7.407 -356.65 -4.977 -360.57 -3.457 Z" style="fill-opacity: 0.96; stroke: url(&quot;#pattern-0-29&quot;); stroke-width: 0px; paint-order: stroke; fill: rgba(239, 239, 239, 0);"/>
  <path opacity="1.000000" d="M -420.21 21.353 C -419.39 22.153 -418.79 22.863 -418.18 23.573 C -418.38 23.913 -418.58 24.253 -418.79 24.593 C -419.85 24.143 -420.92 23.683 -421.99 23.223 C -421.47 22.573 -420.94 21.923 -420.21 21.353 Z" style="fill-opacity: 0.96; stroke: url(&quot;#pattern-0-30&quot;); stroke-width: 0px; paint-order: stroke; fill: rgba(243, 243, 243, 0);"/>
  <path opacity="1.000000" d="M -404.73 3.153 C -404.68 2.253 -404.68 1.393 -404.25 0.893 C -404.01 0.623 -402.56 0.843 -402.51 1.073 C -402.24 2.053 -402.28 3.123 -402.18 4.573 C -403.32 3.993 -403.96 3.663 -404.73 3.153 Z" style="fill-opacity: 0.96; stroke: url(&quot;#pattern-0-31&quot;); stroke-width: 0px; paint-order: stroke; fill: rgba(243, 243, 243, 0);"/>
  <path opacity="1.000000" d="M -398.94 10.633 C -398.26 11.183 -397.38 11.513 -397.31 11.963 C -397.21 12.613 -397.7 13.353 -397.94 14.053 C -398.62 13.713 -399.72 13.493 -399.86 13.003 C -400.16 11.963 -399.96 10.773 -399.96 9.263 C -399.55 9.823 -399.32 10.143 -398.94 10.633 Z" style="fill-opacity: 0.96; stroke: url(&quot;#pattern-0-32&quot;); stroke-width: 0px; paint-order: stroke; fill: rgba(243, 243, 243, 0);"/>
  <path opacity="1.000000" d="M -379.42 -21.247 C -379.42 -20.947 -379.42 -20.627 -379.42 -20.307 C -379.52 -20.297 -379.61 -20.287 -379.71 -20.277 C -379.74 -20.587 -379.78 -20.897 -379.6 -21.227 C -379.38 -21.257 -379.41 -21.237 -379.42 -21.247 Z" style="fill-opacity: 0.96; stroke: url(&quot;#pattern-0-33&quot;); stroke-width: 0px; paint-order: stroke;" fill="#E7E7E7"/>
  <path opacity="1.000000" d="M -362.42 -25.147 C -362.65 -25.207 -362.79 -25.357 -362.93 -25.507 C -362.78 -25.537 -362.61 -25.567 -362.32 -25.507 C -362.19 -25.407 -362.34 -25.237 -362.42 -25.147 Z" style="fill-opacity: 0.96; stroke: url(&quot;#pattern-0-34&quot;); stroke-width: 0px; paint-order: stroke;" fill="#EFEFEF"/>
  <path opacity="1.000000" d="M -257 0.793 C -258.74 0.573 -260.24 0.343 -262.33 0.033 C -260.73 -0.357 -259.69 -0.607 -257.98 -1.027 C -259.4 -2.157 -260.31 -2.887 -261.22 -3.617 C -261.18 -3.747 -261.15 -3.877 -261.11 -4.007 C -259.38 -3.327 -257.45 -2.927 -255.96 -1.897 C -254.42 -0.837 -255.02 0.313 -257 0.793 Z" style="fill-opacity: 0.96; stroke: url(&quot;#pattern-0-35&quot;); stroke-width: 0px; paint-order: stroke; fill: rgba(243, 243, 243, 0);"/>
  <path opacity="1.000000" d="M -272.88 1.843 C -275.62 3.393 -275.62 3.393 -276.77 -1.387 C -274.08 -0.487 -271.41 0.413 -269.09 1.193 C -269.98 1.323 -271.34 1.513 -272.88 1.843 Z" style="fill-opacity: 0.96; stroke: url(&quot;#pattern-0-36&quot;); stroke-width: 0px; paint-order: stroke; fill: rgba(243, 243, 243, 0);"/>
  <path opacity="1.000000" d="M -305.19 -22.227 C -305.81 -24.167 -306.43 -26.117 -306.97 -28.407 C -306.84 -28.857 -306.78 -28.957 -306.71 -29.057 C -305.5 -28.697 -304.28 -28.337 -302.82 -27.897 C -303.5 -26.037 -304.12 -24.337 -304.89 -22.437 C -305.03 -22.227 -305.19 -22.227 -305.19 -22.227 Z" style="fill-opacity: 0.96; stroke: url(&quot;#pattern-0-37&quot;); stroke-width: 0px; paint-order: stroke; fill: rgba(255, 255, 255, 0);"/>
  <path opacity="1.000000" d="M -244.86 12.383 C -246.03 12.013 -247 11.773 -247.9 11.563 C -246.59 10.883 -245.2 9.583 -243.78 9.543 C -241.05 9.453 -242.02 11.753 -242.02 13.463 C -242.93 13.133 -243.8 12.823 -244.86 12.383 Z" style="fill-opacity: 0.96; stroke: url(&quot;#pattern-0-38&quot;); stroke-width: 0px; paint-order: stroke; fill: rgba(243, 243, 243, 0);"/>
  <path opacity="1.000000" d="M -305.16 -21.947 C -305.19 -22.227 -305.03 -22.227 -304.95 -22.227 C -304.77 -20.427 -304.71 -18.627 -304.55 -16.837 C -304.43 -15.627 -304.17 -14.437 -304.04 -13.577 C -305.36 -13.337 -306.46 -13.137 -307.84 -12.937 C -308.11 -12.927 -308.27 -13.077 -308.27 -13.077 C -306.57 -15.707 -304.59 -18.237 -305.16 -21.947 Z" style="fill-opacity: 0.96; stroke: url(&quot;#pattern-0-39&quot;); stroke-width: 0px; paint-order: stroke; fill: rgba(243, 243, 243, 0);"/>
  <path opacity="1.000000" d="M -277.62 -22.177 C -277.31 -24.037 -280.34 -26.067 -276.85 -27.397 C -272.98 -24.817 -278.36 -22.647 -277.47 -20.217 C -277.52 -20.797 -277.57 -21.367 -277.62 -22.177 Z" style="fill-opacity: 0.96; stroke: url(&quot;#pattern-0-40&quot;); stroke-width: 0px; paint-order: stroke; fill: rgba(255, 255, 255, 0);"/>
  <path opacity="1.000000" d="M -312.87 -35.977 C -313.89 -36.577 -315.01 -37.067 -315.91 -37.817 C -316.4 -38.217 -316.76 -39.087 -316.72 -39.707 C -316.7 -40.067 -315.73 -40.647 -315.22 -40.617 C -314.6 -40.587 -313.73 -40.157 -313.47 -39.647 C -313.02 -38.767 -312.94 -37.687 -312.7 -36.427 C -312.69 -36.147 -312.87 -35.977 -312.87 -35.977 Z" style="fill-opacity: 0.96; stroke: url(&quot;#pattern-0-41&quot;); stroke-width: 0px; paint-order: stroke; fill: rgba(243, 243, 243, 0);"/>
  <path opacity="1.000000" d="M -267.27 -7.787 C -268.36 -7.927 -269.48 -7.967 -270.54 -8.237 C -271.07 -8.377 -271.75 -8.847 -271.9 -9.317 C -272.06 -9.827 -271.87 -10.757 -271.49 -11.027 C -271.08 -11.337 -270.09 -11.337 -269.67 -11.037 C -268.69 -10.317 -267.89 -9.347 -267.03 -8.227 C -267.11 -7.927 -267.19 -7.857 -267.27 -7.787 Z" style="fill-opacity: 0.96; stroke: url(&quot;#pattern-0-42&quot;); stroke-width: 0px; paint-order: stroke; fill: rgba(243, 243, 243, 0);"/>
  <path opacity="1.000000" d="M -235.48 26.083 C -236.2 24.583 -236.69 23.103 -237.18 21.623 C -236.97 21.473 -236.76 21.323 -236.55 21.173 C -235.49 22.303 -234.44 23.433 -233.38 24.563 C -234 25.073 -234.62 25.583 -235.48 26.083 Z" style="fill-opacity: 0.96; stroke: url(&quot;#pattern-0-43&quot;); stroke-width: 0px; paint-order: stroke; fill: rgba(243, 243, 243, 0);"/>
  <path opacity="1.000000" d="M -292.81 -37.587 C -290.61 -33.497 -294.64 -34.897 -295.66 -33.627 C -295.93 -33.857 -296.19 -34.077 -296.46 -34.307 C -295.31 -35.447 -294.16 -36.587 -292.81 -37.587 Z" style="fill-opacity: 0.96; stroke: url(&quot;#pattern-0-44&quot;); stroke-width: 0px; paint-order: stroke; fill: rgba(255, 255, 255, 0);"/>
  <path opacity="1.000000" d="M -293.96 -1.767 C -295.89 -1.707 -295.89 -1.707 -298.23 -6.577 C -296.32 -4.737 -293.03 -5.457 -293.96 -1.767 Z" style="fill-opacity: 0.96; stroke: url(&quot;#pattern-0-45&quot;); stroke-width: 0px; paint-order: stroke; fill: rgba(243, 243, 243, 0);"/>
  <path opacity="1.000000" d="M -260.09 14.313 C -260.88 13.753 -261.48 13.073 -262.09 12.383 C -261.3 12.143 -260.48 11.663 -259.7 11.713 C -258.6 11.773 -257.52 12.223 -256.38 12.523 C -257.56 13.083 -258.73 13.633 -260.09 14.313 Z" style="fill-opacity: 0.96; stroke: url(&quot;#pattern-0-46&quot;); stroke-width: 0px; paint-order: stroke; fill: rgba(243, 243, 243, 0);"/>
  <path opacity="1.000000" d="M -315.28 -7.057 C -315.28 -6.227 -315.26 -5.487 -315.59 -4.977 C -315.9 -4.467 -316.56 -3.927 -317.09 -3.887 C -317.56 -3.857 -318.5 -4.537 -318.48 -4.867 C -318.46 -5.487 -318.03 -6.267 -317.52 -6.647 C -316.97 -7.047 -316.13 -7.057 -315.28 -7.057 Z" style="fill-opacity: 0.96; stroke: url(&quot;#pattern-0-47&quot;); stroke-width: 0px; paint-order: stroke; fill: rgba(243, 243, 243, 0);"/>
  <path opacity="1.000000" d="M -307.01 -28.617 C -307.76 -29.277 -308.4 -30.067 -309.01 -31.087 C -308.9 -31.357 -308.82 -31.417 -308.73 -31.467 C -308.13 -30.767 -307.52 -30.057 -306.81 -29.197 C -306.78 -28.957 -306.84 -28.857 -307.01 -28.617 Z" style="fill-opacity: 0.96; stroke: url(&quot;#pattern-0-48&quot;); stroke-width: 0px; paint-order: stroke; fill: rgba(243, 243, 243, 0);"/>
  <path opacity="1.000000" d="M -266.9 -8.077 C -266.57 -7.887 -266.37 -7.607 -266.17 -7.327 C -266.49 -7.357 -266.81 -7.397 -267.2 -7.617 C -267.19 -7.857 -267.11 -7.927 -266.9 -8.077 Z" style="fill-opacity: 0.96; stroke: url(&quot;#pattern-0-49&quot;); stroke-width: 0px; paint-order: stroke;" fill="#F3F3F3"/>
  <path opacity="1.000000" d="M -309.35 -32.017 C -309.17 -31.937 -308.99 -31.847 -308.78 -31.617 C -308.82 -31.417 -308.9 -31.357 -309.11 -31.247 C -309.38 -31.277 -309.48 -31.387 -309.51 -31.707 C -309.47 -31.887 -309.35 -32.017 -309.35 -32.017 Z" style="fill-opacity: 0.96; stroke: url(&quot;#pattern-0-50&quot;); stroke-width: 0px; paint-order: stroke;" fill="#F3F3F3"/>
  <path opacity="1.000000" d="M -303.87 -12.157 C -303.89 -12.157 -303.86 -12.157 -303.87 -12.157 Z" style="fill-opacity: 0.96; stroke-width: 0px; paint-order: stroke; stroke: url(&quot;#pattern-2&quot;);" fill="#EFEFEF"/>
  <path opacity="1.000000" d="M -308.04 -12.847 C -308.19 -12.687 -308.4 -12.607 -308.62 -12.517 C -308.62 -12.677 -308.61 -12.827 -308.44 -13.037 C -308.27 -13.077 -308.11 -12.927 -308.04 -12.847 Z" style="fill-opacity: 0.96; stroke: url(&quot;#pattern-0-52&quot;); stroke-width: 0px; paint-order: stroke;" fill="#EFEFEF"/>
  <path opacity="1.000000" d="M -312.59 -36.227 C -312.46 -36.077 -312.42 -35.847 -312.37 -35.617 C -312.51 -35.637 -312.65 -35.647 -312.83 -35.817 C -312.87 -35.977 -312.69 -36.147 -312.59 -36.227 Z" style="fill-opacity: 0.96; stroke: url(&quot;#pattern-0-53&quot;); stroke-width: 0px; paint-order: stroke;" fill="#F3F3F3"/>
  <path opacity="1.000000" d="M -309.53 -31.827 C -309.73 -31.937 -309.87 -32.127 -310.01 -32.307 C -309.81 -32.327 -309.61 -32.347 -309.38 -32.187 C -309.35 -32.017 -309.47 -31.887 -309.53 -31.827 Z" style="fill-opacity: 0.96; stroke: url(&quot;#pattern-0-54&quot;); stroke-width: 0px; paint-order: stroke;" fill="#F3F3F3"/>
  <path opacity="1.000000" d="M -345.17 88.846 C -362.42 77.037 -364.22 54.598 -354.49 40.928 C -341.95 23.303 -317.45 20.013 -301.32 38.417 C -292.46 48.52 -291.6 60.474 -295.89 72.614 C -300.14 84.644 -309.32 91.696 -321.83 93.804 C -330 95.18 -337.94 93.745 -345.17 88.846 M -300.6 63.36 C -300.83 59.876 -300.61 56.294 -301.36 52.927 C -304.43 39.21 -319.72 30.623 -333.41 33.973 C -346.43 37.163 -355.02 50.723 -352.78 64.517 C -350.12 80.893 -334.62 90.776 -318.77 85.836 C -308.88 82.756 -300.92 73.076 -300.6 63.36 Z" style="fill-opacity: 0.96; fill: rgb(255, 255, 255); stroke: url(&quot;#pattern-0-55&quot;); stroke-width: 0px; paint-order: stroke;"/>
  <path opacity="1.000000" d="M -258.64 48.565 C -252.82 52.682 -247.18 56.701 -241.16 60.995 C -261.6 77.456 -283.44 89.512 -309.01 93.932 C -281.38 77.073 -285.79 39.207 -311.12 26.733 C -309.21 26.733 -308.04 26.523 -306.98 26.763 C -289.48 30.813 -273.52 38.256 -258.64 48.565 M -287.43 72.329 C -287.99 74.269 -288.56 76.21 -289.15 78.216 C -281.25 76.827 -260.53 65.904 -256.82 61.228 C -261.54 56.268 -283.34 44.367 -288.63 43.935 C -288.33 45.152 -288.06 46.33 -287.73 47.489 C -285.4 55.58 -284.75 63.69 -287.43 72.329 Z" style="fill-opacity: 0.96; fill: rgb(255, 255, 255); stroke: url(&quot;#pattern-0-56&quot;); stroke-width: 0px; paint-order: stroke;"/>
  <path opacity="1.000000" d="M -408.21 64.744 C -409.81 63.53 -411.25 62.448 -412.7 61.366 C -403.25 49.563 -359.62 27.303 -344.08 26.683 C -356.85 34.623 -363.88 45.178 -363.73 60.064 C -363.59 74.877 -356.99 85.773 -344.42 93.643 C -356.28 94.605 -387.79 80.265 -408.21 64.744 M -381.27 50.794 C -386.9 54.09 -392.53 57.387 -398.63 60.952 C -388.12 68.266 -377.38 74.246 -364.82 78.871 C -368.97 66.807 -369.42 55.212 -365.47 42.927 C -371.12 45.7 -376.03 48.11 -381.27 50.794 Z" style="fill-opacity: 0.96; fill: rgb(255, 255, 255); stroke: url(&quot;#pattern-0-57&quot;); stroke-width: 0px; paint-order: stroke;"/>
  <path opacity="1.000000" d="M -300.65 63.607 C -300.92 73.076 -308.88 82.756 -318.77 85.836 C -334.62 90.776 -350.12 80.893 -352.78 64.517 C -355.02 50.723 -346.43 37.163 -333.41 33.973 C -319.72 30.623 -304.43 39.21 -301.36 52.927 C -300.61 56.294 -300.83 59.876 -300.65 63.607 M -314.88 73.822 C -311.66 70.888 -310.06 67.217 -309.12 62.98 C -306.56 51.369 -317.76 39.541 -330.88 42.485 C -339.18 44.348 -344.03 50.16 -344.98 58.446 C -345.84 65.974 -342.32 71.916 -335.91 75.903 C -328.64 80.419 -321.74 78.76 -314.88 73.822 Z" style="fill-opacity: 0.96; stroke: url(&quot;#pattern-0-58&quot;); stroke-width: 0px; paint-order: stroke; fill: rgba(255, 255, 255, 0);"/>
  <path opacity="1.000000" d="M -287.42 72.086 C -284.75 63.69 -285.4 55.58 -287.73 47.489 C -288.06 46.33 -288.33 45.152 -288.63 43.935 C -283.34 44.367 -261.54 56.268 -256.82 61.228 C -260.53 65.904 -281.25 76.827 -289.15 78.216 C -288.56 76.21 -287.99 74.269 -287.42 72.086 Z" style="fill-opacity: 0.96; stroke: url(&quot;#pattern-0-59&quot;); stroke-width: 0px; paint-order: stroke;"/>
  <path opacity="1.000000" d="M -381.11 50.656 C -376.03 48.11 -371.12 45.7 -365.47 42.927 C -369.42 55.212 -368.97 66.807 -364.82 78.871 C -377.38 74.246 -388.12 68.266 -398.63 60.952 C -392.53 57.387 -386.9 54.09 -381.11 50.656 Z" style="fill-opacity: 0.96; stroke: url(&quot;#pattern-0-60&quot;); stroke-width: 0px; paint-order: stroke;"/>
  <path opacity="1.000000" d="M -315.04 73.956 C -321.74 78.76 -328.64 80.419 -335.91 75.903 C -342.32 71.916 -345.84 65.974 -344.98 58.446 C -344.03 50.16 -339.18 44.348 -330.88 42.485 C -317.76 39.541 -306.56 51.369 -309.12 62.98 C -310.06 67.217 -311.66 70.888 -315.04 73.956 Z" style="fill-opacity: 0.96; stroke: url(&quot;#pattern-0-61&quot;); stroke-width: 0px; paint-order: stroke; fill: rgb(255, 255, 255);"/>
</svg>